<?xml version="1.0" encoding="utf-8"?>
<!-- Generator: Adobe Illustrator 24.1.2, SVG Export Plug-In . SVG Version: 6.00 Build 0)  -->
<svg version="1.1" id="Слой_1" xmlns="http://www.w3.org/2000/svg" xmlns:xlink="http://www.w3.org/1999/xlink" x="0px" y="0px"
	 viewBox="0 0 22 21" style="enable-background:new 0 0 22 21;" xml:space="preserve">
<style type="text/css">
	.st0{fill-rule:evenodd;clip-rule:evenodd;}
</style>
<path class="st0" d="M10.8,0C4.8,0,0,4.8,0,10.8c0,4.8,3.1,8.8,7.4,10.2c0.5,0.1,0.7-0.2,0.7-0.5c0-0.3,0-0.9,0-1.8
	c-3,0.7-3.6-1.4-3.6-1.4c-0.5-1.2-1.2-1.6-1.2-1.6c-1-0.7,0.1-0.7,0.1-0.7C4.4,15,5,16.1,5,16.1c1,1.6,2.5,1.2,3.1,0.9
	c0.1-0.7,0.4-1.2,0.7-1.4c-2.4-0.3-4.9-1.2-4.9-5.3C3.9,9,4.3,8.1,5,7.3C4.9,7,4.5,5.9,5.1,4.5c0,0,0.9-0.3,3,1.1
	c0.9-0.2,1.8-0.4,2.7-0.4c0.9,0,1.8,0.1,2.7,0.4c2.1-1.4,3-1.1,3-1.1C17,5.9,16.6,7,16.5,7.3c0.7,0.8,1.1,1.7,1.1,2.9
	c0,4.1-2.5,5-4.9,5.3c0.4,0.3,0.7,1,0.7,2c0,1.4,0,2.6,0,3c0,0.3,0.2,0.6,0.7,0.5c4.3-1.4,7.4-5.5,7.4-10.2C21.5,4.8,16.7,0,10.8,0z
	"/>
</svg>
