<?xml version="1.0" encoding="utf-8"?>
<!-- Generator: Adobe Illustrator 24.1.2, SVG Export Plug-In . SVG Version: 6.00 Build 0)  -->
<svg version="1.1" id="Слой_1" xmlns="http://www.w3.org/2000/svg" xmlns:xlink="http://www.w3.org/1999/xlink" x="0px" y="0px"
	 viewBox="0 0 21 21" style="enable-background:new 0 0 21 21;" xml:space="preserve">
<path d="M18.9,0H2.1C0.9,0,0,0.9,0,2.1v16.8C0,20.1,0.9,21,2.1,21h16.8c1.2,0,2.1-0.9,2.1-2.1V2.1C21,0.9,20.1,0,18.9,0z M6.3,17.9
	H3.1V8.4h3.2V17.9z M4.7,6.6c-1,0-1.9-0.8-1.9-1.9s0.8-1.9,1.9-1.9s1.9,0.8,1.9,1.9S5.8,6.6,4.7,6.6z M17.8,17.9h-3.1v-5.6
	c0-0.8-0.7-1.6-1.6-1.6s-1.6,0.7-1.6,1.6v5.6H8.4V8.4h3.1v1.3c0.5-0.8,1.7-1.5,2.6-1.5c2,0,3.7,1.7,3.7,3.7V17.9z"/>
</svg>
